<svg viewBox="0 0 280 100" xmlns="http://www.w3.org/2000/svg">
  <!-- Background circle for icon -->
  <circle cx="50" cy="50" r="48" fill="#FCCF1D" opacity="0.15"/>
  
  <!-- Burger Icon -->
  <g transform="translate(50, 50)">
    <!-- Top bun -->
    <ellipse cx="0" cy="-8" rx="16" ry="8" fill="#D4A574"/>
    <path d="M -16 -8 Q -16 -12 -10 -14 Q 0 -16 10 -14 Q 16 -12 16 -8" fill="#E8C895"/>
    
    <!-- Sesame seeds -->
    <circle cx="-8" cy="-12" r="1.5" fill="#F5DEB3"/>
    <circle cx="0" cy="-13" r="1.5" fill="#F5DEB3"/>
    <circle cx="8" cy="-12" r="1.5" fill="#F5DEB3"/>
    <circle cx="-5" cy="-10" r="1" fill="#F5DEB3"/>
    <circle cx="6" cy="-10" r="1" fill="#F5DEB3"/>
    
    <!-- Cheese -->
    <rect x="-14" y="-2" width="28" height="5" fill="#FFD700" rx="1"/>
    
    <!-- Lettuce -->
    <path d="M -14 3 Q -10 5 0 5 Q 10 5 14 3" fill="#7CB342" stroke="#558B2F" stroke-width="0.5"/>
    
    <!-- Patty -->
    <rect x="-14" y="6" width="28" height="6" fill="#8B4513" rx="1"/>
    
    <!-- Bottom bun -->
    <ellipse cx="0" cy="16" rx="16" ry="8" fill="#D4A574"/>
    <path d="M -16 12 Q -16 8 -10 6 Q 0 4 10 6 Q 16 8 16 12" fill="#C9956F"/>
  </g>
  
  <!-- Text: Minute Burger -->
  <text x="115" y="45" font-family="Arial, sans-serif" font-size="32" font-weight="bold" fill="#FFFFFF" letter-spacing="0.5">
    Minute
  </text>
  <text x="115" y="72" font-family="Arial, sans-serif" font-size="32" font-weight="bold" fill="#FCCF1D" letter-spacing="0.5">
    Burger
  </text>
  
  <!-- Accent line -->
  <line x1="115" y1="78" x2="270" y2="78" stroke="#FCCF1D" stroke-width="2"/>
</svg>
